<svg xmlns="http://www.w3.org/2000/svg" xmlns:xlink="http://www.w3.org/1999/xlink" xmlns:serif="http://www.serif.com/" width="100%" height="100%" viewBox="0 0 223 223" xml:space="preserve" style="fill-rule: evenodd; clip-rule: evenodd; stroke-linejoin: round; stroke-miterlimit: 2; color: var(--inv-accent);"><path d="M111.183,0c61.374,0 111.182,49.808 111.182,111.183c0,61.374 -49.808,111.182 -111.182,111.182c-61.375,0 -111.183,-49.808 -111.183,-111.182c0,-61.375 49.808,-111.183 111.183,-111.183Zm-4.252,186.504l24.555,-20.172c7.975,-6.552 9.129,-18.329 2.577,-26.304l-0.001,-0.001c-3.146,-3.831 -7.686,-6.254 -12.619,-6.737c-4.933,-0.484 -9.856,1.013 -13.687,4.159l-0.229,0.188l-0.188,-0.229c-6.552,-7.976 -18.33,-9.13 -26.306,-2.577c-7.976,6.552 -9.13,18.33 -2.577,26.306l20.171,24.553c2.069,2.518 5.786,2.882 8.304,0.814Zm75.355,-86.484c5.469,-0 10.401,-4.349 10.401,-10.446c-0,-5.335 -2.287,-8.115 -5.784,-10.132c-25.06,-14.615 -59.357,-21.43 -92.084,-21.43c-19.233,0 -36.896,2.197 -52.677,6.815c-4.035,1.165 -7.801,4.617 -7.801,10.714c0,5.963 4.528,10.581 10.446,10.581c2.152,-0 4.169,-0.718 5.783,-1.166c36.942,-10.311 94.012,-5.738 125.933,13.315c2.017,1.166 3.452,1.749 5.783,1.749Zm-13.898,34.161c4.887,0 8.653,-3.9 8.697,-8.742c0,-3.9 -1.434,-6.68 -5.066,-8.832c-22.147,-13.18 -50.256,-20.398 -79.352,-20.398c-18.65,-0 -31.382,2.6 -43.845,6.097c-4.618,1.3 -6.949,4.483 -6.949,9.28c-0,4.797 3.9,8.698 8.697,8.698c2.018,-0 3.183,-0.583 5.335,-1.166c37.166,-10.087 78.949,-3.407 106.969,13.18c1.614,0.852 3.183,1.883 5.514,1.883Z" style="fill: currentcolor;"></path></svg>

